<svg width="27" height="27" viewBox="0 0 27 27" fill="none" xmlns="http://www.w3.org/2000/svg">
<path d="M23.8374 1.51571C20.2748 -1.23831 15.8755 0.0469013 13.5004 3.19873C11.1253 0.0469013 6.72598 -1.25361 3.16335 1.51571C1.27407 2.98453 0.086528 5.46315 0.00555915 8.07947C-0.183368 14.0159 4.45885 18.7743 11.5436 26.0724L11.6786 26.2101C12.7042 27.2658 14.2831 27.2658 15.3087 26.1948L15.4571 26.0418C22.5419 18.759 27.1706 14.0006 26.9952 8.06417C26.9142 5.46315 25.7267 2.98453 23.8374 1.51571ZM13.6353 23.7927L13.5004 23.9457L13.3654 23.7927C6.94189 17.1983 2.70452 12.8378 2.70452 8.41607C2.70452 5.35605 4.72874 3.06103 7.42771 3.06103C9.50591 3.06103 11.5301 4.57574 12.2454 6.67186H14.7689C15.4706 4.57574 17.4948 3.06103 19.573 3.06103C22.272 3.06103 24.2962 5.35605 24.2962 8.41607C24.2962 12.8378 20.0588 17.1983 13.6353 23.7927Z" fill="#D0BCFF"/>
</svg>
